<svg xmlns="http://www.w3.org/2000/svg" viewBox="0 0 3197.99 1014.13"><defs><style>.cls-1{fill:#3f245b;}</style></defs><g id="Layer_2" data-name="Layer 2"><g id="Layer_1-2" data-name="Layer 1"><path d="M0,683.47q0-84.86,37.88-135.2t102.87-50.34q73.74,0,112.47,58.25V351.79h40.07V869H255.58l-1.69-48.49q-38.73,55.25-113.81,55.23-63,0-101.52-50.68T0,688.18Zm40.74,7.07q0,69.71,27.95,109.94t78.8,40.24q74.41,0,105.73-65.66V604q-31.32-71-105.06-71Q97.31,533,69,572.85T40.74,690.54Z"/><path d="M540.45,875.74q-46.47,0-84-22.9T398,789q-20.88-40.92-20.87-91.76V682.79q0-52.53,20.37-94.62T454.25,522q36.36-24.06,78.79-24.07,66.33,0,105.23,45.29T677.16,667v22.56H417.21v7.74q0,62,35.52,103.21t89.4,41.25q32.32,0,57.08-11.79t44.95-37.71l25.26,19.19Q625,875.74,540.45,875.74ZM533,532.27q-45.46,0-76.61,33.34t-37.88,89.57H637.09V650.8q-1.7-52.53-30-85.53T533,532.27Z"/><path d="M973.82,776.4q0-30-24.08-48.15T877.18,699.8q-48.49-10.27-75.26-23.57t-39.74-32.5q-13-19.18-13-46.47,0-43.1,36-71.21t92.26-28.12q60.94,0,97.82,30.14t36.87,78.62H971.8q0-32-26.77-53.2t-67.52-21.22q-39.74,0-63.81,17.68t-24.07,46q0,27.27,20,42.26t73.07,27.44q53,12.46,79.47,26.6t39.23,34q12.8,19.88,12.79,48.15,0,46.14-37.2,73.75t-97.15,27.61q-63.64,0-103.21-30.81T737.1,767h40.4q2.36,35.37,29.81,55.06t72.56,19.7q42.09,0,68-18.52T973.82,776.4Z"/><path d="M1102.45,399.44a27,27,0,0,1,7.41-19.24q7.4-7.86,20.2-7.87t20.37,7.87a26.68,26.68,0,0,1,7.58,19.24,26.12,26.12,0,0,1-7.58,19.07q-7.58,7.71-20.37,7.7t-20.2-7.7A26.39,26.39,0,0,1,1102.45,399.44ZM1149.93,869h-40.41V504.66h40.41Z"/><path d="M1243.2,683.47q0-85.53,37.88-135.54t102.87-50q74.41,0,113.14,59.26l2-52.53h37.72V861.59q0,70.38-39.4,111.46t-106.74,41.08a162.23,162.23,0,0,1-72.57-17q-34.51-17-54.38-45.29l22.56-24.25q42.77,52.53,101.69,52.53,50.52,0,78.8-29.8t29.29-82.66v-45.8q-38.73,53.88-112.8,53.88-63.32,0-101.69-50.51T1243.2,688.85Zm40.74,7.07q0,69.71,28,109.94t78.8,40.24q74.41,0,105.39-66.67V604.67q-14.14-35-40.74-53.37t-64-18.35q-50.85,0-79.13,39.9T1283.94,690.54Z"/><path d="M1680.27,504.66l1.35,62.3q20.54-33.68,51.18-51.35t67.68-17.68q58.61,0,87.22,33t29,99V869h-40.07V629.59q-.35-48.83-20.71-72.73T1790.72,533q-37.38,0-66.17,23.4T1682,619.49V869h-40.07V504.66Z"/><path class="cls-1" d="M2181.43,856.07q12.95-10.52,23.16-45.13t19.12-85.77Q2232.59,674,2240,610.44t14.48-131.27q7.07-67.71,13.4-135.16t13.84-126.62q7.48-59.19,15.74-106.19t18.4-73.56q6.48-16.71,18-25.27t22.44-11Q2367.2-1,2375.05.75t6.95,5.7a1427.09,1427.09,0,0,0-39.19,194.49q-13,99.3-23.47,200t-24.17,200.74a1373.12,1373.12,0,0,1-41.36,195.75q-11.32,40.74-33.59,59.51t-48.38,18.12q-26.1-.64-51.88-19.6t-44.09-53.68q-9.64-17.82-20-46.39t-19.1-59.82q-8.71-31.26-14.49-61.14T2016,583.11a46.6,46.6,0,0,1,8.42-28.23q8.73-12.61,19.09-19t18.9-5.77q8.55.54,7.81,11.29-.3,8.31,2.3,27.51t7.32,45.2q4.71,26,11.7,56.08t15.19,59.42q8.21,29.34,17.31,55.71t18.77,44.71q9.66,18.33,19.58,25.92T2181.43,856.07Z"/><path d="M2381.08,399.44a27,27,0,0,1,7.41-19.24q7.41-7.86,20.21-7.87t20.37,7.87a26.67,26.67,0,0,1,7.57,19.24,26.11,26.11,0,0,1-7.57,19.07q-7.58,7.71-20.37,7.7t-20.21-7.7A26.43,26.43,0,0,1,2381.08,399.44ZM2428.56,869h-40.41V504.66h40.41Z"/><path d="M2831.29,690.54q0,85.19-37.71,135.19t-101.36,50q-76.11,0-115.16-56.57L2575.38,869h-37.72V351.79h40.07V557.53q38.39-59.6,113.82-59.6,64.65,0,102.19,49.33t37.55,137.22Zm-40.41-7.07q0-72.06-28-111.29T2684.14,533q-38.73,0-65.66,19t-40.75,55.73V772q30.32,68.69,107.08,68.69,49.83,0,78-39.4T2790.88,683.47Z"/><path d="M3061.27,875.74q-46.45,0-84-22.9T2918.84,789Q2898,748.11,2898,697.27V682.79q0-52.53,20.37-94.62T2975.07,522q36.38-24.06,78.8-24.07,66.33,0,105.22,45.29T3198,667v22.56H2938v7.74q0,62,35.53,103.21t89.4,41.25q32.33,0,57.07-11.79t45-37.71l25.25,19.19Q3145.8,875.74,3061.27,875.74Zm-7.4-343.47q-45.47,0-76.61,33.34t-37.88,89.57h218.54V650.8q-1.7-52.53-30-85.53T3053.87,532.27Z"/></g></g></svg>