<svg xmlns="http://www.w3.org/2000/svg" viewBox="0 0 741.97 235.29"><defs><style>.cls-1{fill:#fff;}</style></defs><g id="Layer_2" data-name="Layer 2"><g id="Layer_1-2" data-name="Layer 1"><path class="cls-1" d="M0,158.57q0-19.68,8.79-31.36t23.87-11.68q17.1,0,26.09,13.51V81.62h9.3v120H59.3l-.39-11.25q-9,12.81-26.41,12.81-14.61,0-23.55-11.76T0,159.67Zm9.45,1.64q0,16.17,6.49,25.51t18.28,9.34q17.27,0,24.53-15.24V140.13q-7.26-16.47-24.37-16.48-11.8,0-18.36,9.26T9.45,160.21Z"/><path class="cls-1" d="M125.39,203.18a36.7,36.7,0,0,1-19.49-5.31,36.2,36.2,0,0,1-13.56-14.81,46.1,46.1,0,0,1-4.84-21.28v-3.36a49.63,49.63,0,0,1,4.73-22,37.66,37.66,0,0,1,13.16-15.35,32.51,32.51,0,0,1,18.28-5.58q15.39,0,24.42,10.5t9,28.71V160H96.8v1.8q0,14.37,8.24,23.94a26.21,26.21,0,0,0,20.74,9.57A30.47,30.47,0,0,0,139,192.56a29.39,29.39,0,0,0,10.43-8.75l5.86,4.45Q145,203.19,125.39,203.18Zm-1.72-79.69a23.36,23.36,0,0,0-17.77,7.74Q98.67,139,97.11,152h50.7v-1q-.39-12.18-6.95-19.84A21.58,21.58,0,0,0,123.67,123.49Z"/><path class="cls-1" d="M225.94,180.13A13.35,13.35,0,0,0,220.35,169q-5.58-4.22-16.83-6.6t-17.47-5.47a23.13,23.13,0,0,1-9.21-7.54,18.77,18.77,0,0,1-3-10.78q0-10,8.36-16.52t21.4-6.52q14.15,0,22.7,7a22.44,22.44,0,0,1,8.55,18.24h-9.37a15.13,15.13,0,0,0-6.21-12.34q-6.21-4.93-15.67-4.93-9.21,0-14.8,4.11a12.63,12.63,0,0,0-5.59,10.66,11.51,11.51,0,0,0,4.65,9.8q4.65,3.48,17,6.37t18.44,6.17a23.91,23.91,0,0,1,9.1,7.89,21.71,21.71,0,0,1-5.66,28.29q-8.64,6.41-22.54,6.4-14.76,0-23.94-7.15T171,178h9.37a16.25,16.25,0,0,0,6.91,12.77q6.38,4.58,16.84,4.57,9.77,0,15.78-4.3T225.94,180.13Z"/><path class="cls-1" d="M255.78,92.67a6.25,6.25,0,0,1,1.72-4.46,6.13,6.13,0,0,1,4.69-1.83,6.23,6.23,0,0,1,4.72,1.83,6.16,6.16,0,0,1,1.76,4.46,6,6,0,0,1-1.76,4.43,6.31,6.31,0,0,1-4.72,1.78,6.21,6.21,0,0,1-4.69-1.78A6.13,6.13,0,0,1,255.78,92.67Zm11,109h-9.38V117.09h9.38Z"/><path class="cls-1" d="M288.44,158.57q0-19.84,8.79-31.44t23.86-11.6q17.27,0,26.25,13.75l.47-12.19h8.75V199.9q0,16.33-9.14,25.86t-24.76,9.53a37.62,37.62,0,0,1-16.84-3.94,32.89,32.89,0,0,1-12.62-10.51l5.24-5.63q9.92,12.19,23.59,12.19,11.72,0,18.28-6.91t6.8-19.18V190.68q-9,12.51-26.17,12.5a28.19,28.19,0,0,1-23.6-11.72q-8.89-11.72-8.9-31.64Zm9.45,1.64q0,16.17,6.49,25.51t18.28,9.34q17.26,0,24.45-15.47v-39.3a26.74,26.74,0,0,0-9.45-12.38,25.52,25.52,0,0,0-14.85-4.26q-11.79,0-18.36,9.26T297.89,160.21Z"/><path class="cls-1" d="M389.84,117.09l.32,14.45A33.43,33.43,0,0,1,402,119.63a30.79,30.79,0,0,1,15.7-4.1q13.61,0,20.24,7.65t6.72,23v55.47h-9.3V146.07q-.08-11.32-4.8-16.87t-15.12-5.55a23.64,23.64,0,0,0-15.35,5.43,31.79,31.79,0,0,0-9.89,14.65v57.89h-9.29V117.09Z"/><path class="cls-1" d="M506.12,198.62q3-2.44,5.37-10.47a182.75,182.75,0,0,0,4.44-19.9q2.05-11.87,3.78-26.62t3.35-30.46q1.65-15.7,3.11-31.35t3.21-29.38Q531.12,36.7,533,25.8a95.31,95.31,0,0,1,4.27-17.07,12.84,12.84,0,0,1,4.17-5.86A13.85,13.85,0,0,1,546.69.33,10,10,0,0,1,551,.17c1.21.28,1.75.72,1.61,1.33a332.51,332.51,0,0,0-9.09,45.12q-3,23-5.44,46.4t-5.61,46.58a319.3,319.3,0,0,1-9.6,45.41q-2.62,9.45-7.79,13.81a16.39,16.39,0,0,1-11.23,4.2,21.12,21.12,0,0,1-12-4.54A35.8,35.8,0,0,1,481.63,186,82.18,82.18,0,0,1,477,175.26q-2.4-6.63-4.43-13.88t-3.36-14.18a71.66,71.66,0,0,1-1.45-11.91,10.84,10.84,0,0,1,1.95-6.55,15.14,15.14,0,0,1,4.43-4.4,7.7,7.7,0,0,1,4.39-1.34c1.32.09,1.92,1,1.81,2.62a42.55,42.55,0,0,0,.53,6.39q.61,4.45,1.7,10.48t2.72,13q1.62,7,3.52,13.79t4,12.93a75.25,75.25,0,0,0,4.36,10.37,18.21,18.21,0,0,0,4.54,6A3.22,3.22,0,0,0,506.12,198.62Z"/><path class="cls-1" d="M552.44,92.67a6.25,6.25,0,0,1,1.72-4.46,6.12,6.12,0,0,1,4.69-1.83,6.23,6.23,0,0,1,4.72,1.83,6.16,6.16,0,0,1,1.76,4.46,6,6,0,0,1-1.76,4.43,6.31,6.31,0,0,1-4.72,1.78,6.19,6.19,0,0,1-4.69-1.78A6.13,6.13,0,0,1,552.44,92.67Zm11,109h-9.38V117.09h9.38Z"/><path class="cls-1" d="M656.89,160.21q0,19.77-8.75,31.37t-23.51,11.6q-17.65,0-26.72-13.12l-.39,11.56h-8.75v-120h9.3v47.73q8.89-13.83,26.4-13.82,15,0,23.71,11.44t8.71,31.84Zm-9.37-1.64q0-16.71-6.49-25.82t-18.28-9.1a25.72,25.72,0,0,0-15.23,4.41A26.85,26.85,0,0,0,598.07,141v38.13q7,15.93,24.84,15.94,11.57,0,18.09-9.14T647.52,158.57Z"/><path class="cls-1" d="M710.25,203.18a36.73,36.73,0,0,1-19.49-5.31,36.11,36.11,0,0,1-13.55-14.81,46.1,46.1,0,0,1-4.85-21.28v-3.36a49.77,49.77,0,0,1,4.73-22,37.66,37.66,0,0,1,13.16-15.35,32.51,32.51,0,0,1,18.28-5.58q15.39,0,24.42,10.5t9,28.71V160H681.66v1.8q0,14.37,8.24,23.94a26.23,26.23,0,0,0,20.74,9.57,30.54,30.54,0,0,0,13.25-2.73,29.56,29.56,0,0,0,10.43-8.75l5.85,4.45Q729.87,203.19,710.25,203.18Zm-1.72-79.69a23.36,23.36,0,0,0-17.77,7.74Q683.53,139,682,152h50.7v-1q-.39-12.18-6.95-19.84A21.55,21.55,0,0,0,708.53,123.49Z"/></g></g></svg>